<svg width="158" height="158" viewBox="0 0 158 158" fill="none" xmlns="http://www.w3.org/2000/svg">
<path d="M26.3334 131.667C22.7126 131.667 19.614 130.379 17.0377 127.803C14.4571 125.222 13.1667 122.121 13.1667 118.501V39.5007C13.1667 35.8798 14.4571 32.7813 17.0377 30.205C19.614 27.6243 22.7126 26.334 26.3334 26.334H131.667C135.288 26.334 138.388 27.6243 140.969 30.205C143.545 32.7813 144.833 35.8798 144.833 39.5007V118.501C144.833 122.121 143.545 125.222 140.969 127.803C138.388 130.379 135.288 131.667 131.667 131.667H26.3334ZM79.0001 85.584L131.667 52.6673V39.5007L79.0001 72.4173L26.3334 39.5007V52.6673L79.0001 85.584Z" fill="#0066C2"/>
</svg>
