<svg width="26" height="26" viewBox="0 0 26 26" fill="none" xmlns="http://www.w3.org/2000/svg">
<g clip-path="url(#clip0_1185_216)">
<path d="M13 1.42634C6.60725 1.42634 1.42567 6.60792 1.42567 13.0007C1.42567 19.3934 6.60725 24.575 13 24.575C19.3928 24.575 24.5743 19.3934 24.5743 13.0007C24.5613 6.61334 19.3873 1.43934 13.0011 1.42634H13ZM13 25.5814C6.0515 25.5814 0.41925 19.9492 0.41925 13.0007C0.41925 6.05217 6.0515 0.419922 13 0.419922C19.9485 0.419922 25.5808 6.05217 25.5808 13.0007V13.0169C25.5808 19.9557 19.9561 25.5803 13.0173 25.5803H13H13.0011L13 25.5814Z" fill="#0066C2"/>
<path d="M13 26C5.83483 25.9632 0.0368333 20.1652 0 13.0033V13C0 5.82075 5.82075 0 13 0C20.1793 0 26 5.82075 26 13C25.9632 20.1652 20.1652 25.9632 13.0033 26H13ZM13 0.8385C6.28333 0.8385 0.8385 6.28333 0.8385 13C0.8385 19.7167 6.28333 25.1615 13 25.1615C19.7167 25.1615 25.1615 19.7167 25.1615 13C25.1572 6.2855 19.7145 0.843917 13.0011 0.8385H13ZM13 24.9936C6.3765 24.9936 1.00642 19.6235 1.00642 13C1.00642 6.3765 6.3765 1.00642 13 1.00642C19.6235 1.00642 24.9936 6.3765 24.9936 13C24.9936 19.6235 19.6235 24.9936 13 24.9936ZM13 1.84492C6.83908 1.84492 1.84492 6.83908 1.84492 13C1.84492 19.1609 6.83908 24.1551 13 24.1551C19.1609 24.1551 24.1551 19.1609 24.1551 13C24.1269 6.851 19.1501 1.87308 13.0033 1.84492H13.0011H13Z" fill="#0066C2"/>
<path d="M10.4834 10.7357V10.7455C10.4834 11.9913 9.47373 13.001 8.2279 13.001H8.21815C7.77034 13.001 7.33258 12.8682 6.96024 12.6194C6.5879 12.3706 6.2977 12.017 6.12633 11.6033C5.95496 11.1896 5.91012 10.7343 5.99749 10.2951C6.08485 9.8559 6.30049 9.45247 6.61714 9.13582C6.93379 8.81917 7.33723 8.60353 7.77643 8.51616C8.21564 8.4288 8.67088 8.47364 9.08461 8.64501C9.49833 8.81638 9.85194 9.10658 10.1007 9.47892C10.3495 9.85126 10.4823 10.289 10.4823 10.7368L10.4834 10.7357ZM20.1294 10.7357V10.7455C20.1294 11.9913 19.1197 13.001 17.8739 13.001H17.8641C17.2637 13.001 16.6878 12.7624 16.2631 12.3378C15.8385 11.9132 15.6 11.3373 15.6 10.7368C15.6 10.1363 15.8385 9.56043 16.2631 9.13582C16.6878 8.7112 17.2637 8.47266 17.8641 8.47266C18.4606 8.48429 19.0295 8.72627 19.4515 9.14792C19.8736 9.56958 20.1161 10.1382 20.1283 10.7347V10.7368L20.1294 10.7357ZM17.7807 18.6192H8.13581C8.00559 18.6103 7.88296 18.5547 7.79057 18.4625C7.69818 18.3703 7.64226 18.2478 7.63315 18.1176V18.1154C7.64198 17.9852 7.69764 17.8626 7.78983 17.7702C7.88202 17.6778 8.00453 17.6219 8.13473 17.6127H17.7818C17.912 17.6216 18.0347 17.6772 18.1271 17.7694C18.2194 17.8616 18.2754 17.9841 18.2845 18.1143V18.1371C18.2845 18.4036 18.0678 18.6202 17.8013 18.6202H17.7796L17.7807 18.6192Z" fill="#0066C2"/>
<path d="M17.7808 19.0378H8.13586C7.89106 19.0378 7.6563 18.9406 7.4832 18.7675C7.3101 18.5944 7.21286 18.3596 7.21286 18.1148C7.21286 17.87 7.3101 17.6353 7.4832 17.4622C7.6563 17.2891 7.89106 17.1918 8.13586 17.1918H17.7808C18.0256 17.1918 18.2603 17.2891 18.4334 17.4622C18.6065 17.6353 18.7038 17.87 18.7038 18.1148C18.7038 18.3596 18.6065 18.5944 18.4334 18.7675C18.2603 18.9406 18.0256 19.0378 17.7808 19.0378ZM8.21928 18.0314C8.13586 18.0314 8.13586 18.1148 8.21928 18.0314C8.19761 18.0531 8.18353 18.0823 8.18353 18.1148C8.18353 18.1473 8.19761 18.1777 8.21928 18.1982H17.8642C17.8863 18.1982 17.9075 18.1895 17.9232 18.1738C17.9388 18.1582 17.9476 18.137 17.9476 18.1148C17.9476 18.0314 17.9476 18.0314 17.8642 18.0314H8.21928ZM17.7808 13.8378C17.1669 13.8378 16.5668 13.6558 16.0564 13.3148C15.546 12.9737 15.1482 12.489 14.9133 11.9218C14.6784 11.3547 14.6169 10.7306 14.7367 10.1286C14.8564 9.5265 15.152 8.97347 15.5861 8.5394C16.0202 8.10533 16.5732 7.80973 17.1753 7.68997C17.7773 7.57021 18.4014 7.63168 18.9685 7.86659C19.5357 8.10151 20.0204 8.49932 20.3615 9.00973C20.7025 9.52014 20.8845 10.1202 20.8845 10.7341V10.7417C20.8845 11.1483 20.8044 11.5509 20.6488 11.9265C20.4932 12.3022 20.2652 12.6435 19.9777 12.931C19.6902 13.2185 19.3489 13.4466 18.9732 13.6022C18.5976 13.7577 18.195 13.8378 17.7884 13.8378H17.7808ZM8.21928 13.8378C7.4006 13.8255 6.61887 13.495 6.03971 12.9163C5.46055 12.3375 5.12947 11.556 5.11661 10.7373V10.7276C5.11661 9.90643 5.44281 9.11891 6.02346 8.53826C6.6041 7.95762 7.39162 7.63142 8.21278 7.63142H8.22036C9.03904 7.6437 9.82077 7.97424 10.3999 8.553C10.9791 9.13175 11.3102 9.91325 11.323 10.7319V10.7341C11.2963 11.5477 10.9614 12.3208 10.3862 12.8969C9.81094 13.4729 9.0383 13.8089 8.22469 13.8367H8.21928V13.8378ZM24.8257 10.2314H21.8064C21.6773 9.2491 21.2008 8.34545 20.4632 7.68395C19.7256 7.02246 18.7756 6.64682 17.7851 6.625H17.7808C16.7881 6.62958 15.8314 6.99666 15.0904 7.65723C14.3494 8.31779 13.8753 9.22631 13.7573 10.2119L13.7551 10.2314H12.1615C12.0324 9.2491 11.5559 8.34545 10.8183 7.68395C10.0807 7.02246 9.13072 6.64682 8.14019 6.625H8.13586C7.14321 6.62958 6.18644 6.99666 5.44548 7.65723C4.70451 8.31779 4.23042 9.22631 4.11236 10.2119L4.11019 10.2314H1.09094V11.2378H4.11019C4.23933 12.2201 4.7158 13.1238 5.4534 13.7853C6.19099 14.4468 7.141 14.8224 8.13153 14.8442H8.13586C9.12851 14.8397 10.0853 14.4726 10.8262 13.812C11.5672 13.1515 12.0413 12.2429 12.1594 11.2573L12.1615 11.2378H13.7551C13.8842 12.2201 14.3607 13.1238 15.0983 13.7853C15.8359 14.4468 16.7859 14.8224 17.7764 14.8442H17.7808C18.7734 14.8397 19.7302 14.4726 20.4712 13.812C21.2121 13.1515 21.6862 12.2429 21.8043 11.2573L21.8064 11.2378H24.8257V10.2314Z" fill="#0066C2"/>
</g>
<defs>
<clipPath id="clip0_1185_216">
<rect width="26" height="26" fill="white"/>
</clipPath>
</defs>
</svg>
