<svg width="136" height="136" viewBox="0 0 136 136" fill="none" xmlns="http://www.w3.org/2000/svg">
<path d="M108.975 135.999C103.048 135.999 94.7221 133.856 82.2549 126.892C67.0944 118.391 55.3681 110.544 40.2897 95.508C25.7517 80.9819 18.677 71.5772 8.77555 53.563C-2.4103 33.2235 -0.503485 22.5619 1.62802 18.0053C4.1664 12.5591 7.91324 9.30176 12.7562 6.06869C15.507 4.26677 18.418 2.72213 21.4523 1.45434C21.7559 1.32381 22.0383 1.19934 22.2903 1.08702C23.7933 0.410046 26.0705 -0.613003 28.955 0.479868C30.8801 1.20238 32.5986 2.68079 35.2888 5.33707C40.8059 10.7771 48.3451 22.8928 51.1264 28.8429C52.9937 32.8531 54.2295 35.5003 54.2325 38.4693C54.2325 41.9452 52.4836 44.6258 50.3612 47.5188C49.9634 48.0622 49.5687 48.5813 49.1861 49.0853C46.8755 52.121 46.3684 52.9984 46.7024 54.5648C47.3795 57.7129 52.4289 67.0842 60.7272 75.3627C69.0256 83.6412 78.1285 88.3709 81.2893 89.0449C82.9229 89.394 83.8186 88.8658 86.9521 86.4736C87.4015 86.1305 87.863 85.7754 88.3457 85.4202C91.5825 83.0128 94.1391 81.3098 97.5337 81.3098H97.5519C100.506 81.3098 103.036 82.5909 107.226 84.7037C112.691 87.4602 125.173 94.9008 130.648 100.423C133.311 103.106 134.796 104.819 135.521 106.74C136.614 109.633 135.585 111.901 134.914 113.419C134.802 113.671 134.677 113.947 134.547 114.254C133.269 117.282 131.714 120.186 129.904 122.93C126.676 127.757 123.406 131.494 117.947 134.035C115.144 135.36 112.076 136.032 108.975 135.999Z" fill="#0066C2"/>
</svg>
